<?xml version="1.0" standalone="no"?>
<!DOCTYPE svg PUBLIC "-//W3C//DTD SVG 20010904//EN"
 "http://www.w3.org/TR/2001/REC-SVG-20010904/DTD/svg10.dtd">
<svg version="1.0" xmlns="http://www.w3.org/2000/svg"
 width="236.000000pt" height="314.000000pt" viewBox="0 0 236.000000 314.000000"
 preserveAspectRatio="xMidYMid meet">

<g transform="translate(0.000000,314.000000) scale(0.100000,-0.100000)"
fill="#000000" stroke="none">
<path d="M0 2973 c0 -159 1 -168 22 -192 l23 -26 -22 19 -23 19 0 -114 c0
-128 -3 -120 88 -229 54 -64 172 -163 182 -153 3 3 -1 8 -7 10 -20 7 -15 24 5
21 12 -2 17 3 16 19 0 12 4 19 9 16 6 -3 8 27 6 76 -2 44 -2 81 0 81 2 0 26
-24 52 -52 45 -49 48 -56 43 -90 -3 -21 -2 -38 3 -38 4 0 8 -16 7 -35 -1 -25
2 -35 13 -35 11 0 14 6 10 21 -4 16 0 23 16 27 20 5 20 6 1 13 -16 7 -17 8 -1
8 9 1 17 6 17 11 0 6 10 10 22 10 33 0 14 11 -21 12 -18 1 -34 4 -36 9 -6 9
49 29 79 29 12 0 26 4 32 10 12 12 146 61 152 55 3 -2 -3 -8 -12 -11 -14 -5
-15 -9 -4 -16 10 -8 9 -9 -4 -5 -9 3 -34 1 -55 -5 -21 -7 -41 -12 -45 -12 -3
-1 -10 -4 -14 -8 -4 -5 7 -8 24 -8 19 0 32 5 32 13 0 6 5 4 11 -5 6 -11 22
-18 40 -18 42 0 32 -21 -16 -34 l-38 -11 26 -14 c19 -10 43 -12 93 -6 37 4 74
9 82 13 10 3 13 0 10 -9 -2 -8 -14 -15 -26 -17 -12 -2 -22 -10 -22 -18 0 -8
-10 -14 -22 -14 -13 0 -29 -4 -36 -9 -11 -7 -10 -9 3 -14 9 -4 13 -3 10 3 -4
6 11 10 37 9 36 -1 39 -2 18 -9 -14 -4 -18 -9 -10 -10 8 -1 4 -5 -10 -10 -14
-4 23 -5 83 -2 97 5 107 3 101 -11 -5 -13 0 -17 20 -17 16 0 26 6 26 15 0 9 9
15 21 15 22 0 55 -27 46 -37 -8 -7 -94 -15 -222 -20 -55 -2 -104 -8 -108 -12
-4 -4 77 -11 180 -15 103 -4 189 -11 191 -16 2 -4 20 -6 40 -3 20 2 55 0 77
-5 38 -10 39 -10 10 -13 -16 -1 2 -5 40 -9 44 -3 -7 -6 -135 -7 -113 -1 -196
2 -185 6 13 5 -6 10 -55 14 -41 4 -97 9 -125 12 -49 5 -48 5 20 -16 39 -11 81
-19 95 -17 25 4 26 2 28 -60 2 -57 0 -63 -13 -52 -8 7 -12 16 -9 21 3 5 -7 9
-23 9 -15 0 -50 11 -78 23 -27 13 -63 27 -80 31 -16 4 -37 9 -46 12 -9 2 -19
-2 -23 -11 -3 -9 -2 -14 3 -10 5 3 20 1 33 -4 l23 -10 -25 -1 c-21 -2 -20 -3
10 -12 19 -5 45 -9 58 -9 13 1 22 -5 22 -14 0 -8 9 -15 20 -15 11 0 29 -9 39
-19 21 -21 59 -30 79 -18 9 7 12 -31 10 -175 -1 -101 -3 -164 -5 -140 -2 23
-8 40 -12 37 -5 -2 -7 10 -5 27 2 18 -1 35 -8 40 -10 6 -10 10 1 17 11 7 9 11
-8 20 -14 8 -21 21 -21 41 0 31 19 43 21 13 0 -11 3 -13 6 -5 2 6 10 9 16 6 9
-5 9 -4 0 6 -6 7 -9 19 -6 28 5 12 1 14 -15 10 -13 -4 -19 -2 -16 6 4 11 -54
51 -69 48 -4 -1 -10 5 -13 13 -4 8 -14 15 -23 15 -9 0 -21 8 -28 19 -13 20
-60 34 -69 20 -3 -5 -10 -9 -15 -9 -6 0 -8 3 -6 8 3 4 -14 8 -36 9 -41 1 -41
1 -9 -7 41 -10 51 -19 32 -30 -8 -5 -11 -12 -8 -15 4 -4 17 2 29 14 13 12 32
21 43 20 20 0 20 -1 -1 -11 -26 -12 -27 -16 -13 -52 5 -15 6 -26 0 -26 -5 0
-10 10 -12 22 -2 12 -9 23 -16 26 -10 3 -11 0 -3 -14 5 -11 14 -35 20 -54 10
-33 10 -34 -5 -15 -8 11 -18 32 -21 47 -3 14 -13 29 -22 32 -9 3 -22 9 -30 12
-7 4 -4 -3 8 -15 25 -25 18 -55 -11 -45 -15 4 -18 3 -13 -6 4 -6 16 -9 27 -7
26 7 43 -35 27 -65 -11 -20 -12 -20 -21 -4 -6 10 -8 26 -5 36 3 12 0 17 -8 14
-7 -3 -16 -1 -20 5 -3 6 -14 11 -23 10 -12 0 -11 -3 6 -9 12 -5 22 -15 22 -23
0 -13 -29 -13 -107 -1 -49 7 -40 24 15 25 51 1 48 4 -10 14 -29 4 -38 11 -38
26 0 16 5 19 22 14 22 -6 22 -6 4 9 -15 12 -16 16 -5 17 8 0 4 4 -9 10 -18 7
-21 13 -14 26 9 15 -1 48 -19 63 -3 3 -8 12 -11 20 -7 19 -2 -188 6 -260 7
-64 -5 -38 -25 55 -7 33 -19 64 -26 68 -7 4 -14 18 -14 30 -2 38 -18 -53 -28
-165 -7 -70 -7 -147 0 -226 7 -96 7 -124 -4 -145 -8 -15 -17 -24 -21 -20 -4 4
-4 0 0 -10 3 -9 14 -17 23 -17 13 0 14 -2 1 -9 -8 -6 -18 -7 -22 -5 -4 3 -8
-4 -8 -15 0 -17 -31 -84 -46 -100 -2 -2 -20 -6 -41 -8 -53 -6 -54 -13 -2 -13
24 0 50 -4 56 -8 7 -4 -30 -6 -81 -4 -92 4 -94 4 -111 -21 -9 -15 -26 -29 -36
-32 -17 -6 -20 -14 -17 -53 3 -43 5 -47 28 -45 l25 3 -28 -23 -28 -23 1 -267
c1 -188 5 -269 13 -276 14 -11 67 -3 67 10 0 5 -8 9 -17 9 -9 0 -14 2 -12 5
10 9 79 -8 79 -20 0 -7 7 -15 15 -19 8 -3 15 -13 15 -22 0 -11 5 -14 18 -9 44
18 86 26 112 20 21 -5 31 -2 39 12 8 14 10 2 11 -51 0 -54 -4 -72 -17 -82 -20
-14 -12 -31 9 -18 30 19 35 10 12 -23 -13 -20 -24 -40 -24 -45 0 -5 21 -21 46
-36 61 -36 96 -63 90 -69 -3 -3 -1 -14 5 -24 8 -16 22 -19 93 -19 94 0 96 2
96 73 0 71 -1 70 205 79 11 1 47 -2 80 -6 33 -3 86 -1 120 5 33 7 110 13 170
15 61 2 117 4 125 5 76 2 719 -13 730 -18 8 -3 51 -9 95 -14 44 -4 96 -10 115
-13 71 -12 70 -15 70 184 l0 179 -57 4 -58 3 58 2 57 2 0 176 0 176 -121 -6
c-67 -3 -124 -8 -127 -10 -5 -6 -6 -50 -4 -209 2 -109 3 -118 23 -125 20 -8
20 -8 -5 -20 -20 -9 -26 -9 -26 1 0 9 -36 11 -148 9 -151 -4 -239 8 -226 30
10 16 6 310 -5 321 -12 12 -227 5 -240 -8 -15 -15 -26 -287 -13 -311 11 -20 7
-20 -271 -22 -315 -2 -363 -4 -527 -27 -63 -9 -122 -17 -130 -18 -8 0 -20 -5
-27 -11 -6 -6 -34 -24 -62 -41 -31 -18 -53 -39 -56 -52 -3 -13 -7 -35 -10 -49
-9 -41 -18 -20 -10 24 3 22 15 49 25 60 14 15 16 22 7 33 -10 11 -9 11 5 0 18
-13 58 0 58 20 0 6 5 7 10 4 14 -9 12 33 -5 79 -8 22 -12 42 -10 46 2 3 6 30
10 59 3 30 10 62 16 73 5 10 7 23 4 28 -9 14 66 120 84 119 10 0 12 -2 3 -6
-7 -2 -17 -14 -24 -26 -11 -22 -11 -22 10 -4 11 11 25 16 31 12 7 -3 8 0 5 10
-5 11 -2 14 11 9 13 -5 16 -2 13 16 -1 13 -9 25 -16 26 -7 1 -8 0 -2 -3 5 -2
10 -12 10 -21 0 -12 -3 -13 -11 -5 -6 6 -18 9 -26 6 -30 -12 4 30 104 129 54
53 114 104 133 112 40 16 136 20 283 11 53 -3 97 -3 97 2 0 8 109 7 259 -2 73
-4 82 -3 77 11 -3 9 -6 18 -6 20 0 3 -5 2 -10 -1 -7 -4 -10 132 -10 400 0 369
1 405 16 391 8 -9 22 -16 30 -16 8 0 12 -4 9 -10 -3 -5 3 -10 15 -10 13 0 19
-4 14 -11 -4 -8 -1 -8 12 -1 22 12 95 12 88 0 -3 -4 4 -8 16 -8 12 0 19 -4 15
-9 -3 -5 7 -12 22 -14 23 -3 21 -5 -12 -7 -30 -3 -21 -5 35 -10 62 -5 48 -7
-76 -8 l-151 -2 1 -132 c1 -106 -2 -132 -12 -130 -8 1 -11 -2 -7 -8 3 -6 11
-8 16 -5 5 4 9 -3 9 -15 0 -14 -4 -19 -12 -14 -10 6 -10 5 -2 -7 7 -8 12 -38
12 -66 0 -42 -4 -53 -17 -54 -12 0 -11 -2 4 -9 l20 -9 -20 -1 -20 -1 20 -9 20
-9 -20 0 c-15 -1 -17 -3 -6 -10 8 -5 11 -17 6 -32 -5 -19 -4 -21 4 -9 9 13 11
13 11 -2 0 -9 -5 -20 -10 -23 -7 -4 -8 -11 -1 -18 10 -13 3 -69 -8 -63 -10 6
-6 -37 5 -56 9 -16 31 -18 199 -19 105 -1 208 2 230 7 22 5 66 7 98 4 41 -4
56 -2 53 6 -7 19 45 59 94 73 72 21 77 25 38 29 l-37 3 31 52 c16 29 34 54 39
55 5 2 10 166 11 370 1 202 3 346 5 320 2 -27 8 -48 14 -48 5 0 9 -32 9 -72 0
-117 10 -71 14 68 2 71 9 130 14 132 6 2 10 80 11 193 2 182 1 190 -17 180
-16 -9 -18 -5 -17 50 0 46 3 58 15 56 12 -2 16 13 18 71 3 68 2 72 -15 64 -17
-10 -18 -2 -15 134 l3 144 -375 0 c-244 0 -376 -4 -376 -10 0 -5 -5 -10 -11
-10 -5 0 -7 5 -4 10 4 7 -258 10 -779 10 l-786 0 0 -167z m1536 141 c-3 -9 -6
-20 -6 -25 0 -15 -20 -10 -27 7 -3 9 0 20 8 25 21 13 32 11 25 -7z m617 4 c-7
-12 -12 -40 -14 -80 0 -10 -5 -18 -10 -18 -6 0 -5 -9 2 -22 9 -19 9 -21 -2
-10 -7 6 -17 12 -22 12 -4 0 -5 -6 0 -12 13 -22 12 -39 -3 -45 -8 -3 -12 -8
-9 -12 2 -4 -7 -24 -21 -44 -23 -35 -25 -44 -25 -174 0 -76 -2 -160 -5 -187
-5 -34 -3 -47 5 -42 8 5 11 -11 11 -51 0 -48 4 -60 21 -71 12 -8 18 -9 15 -4
-6 10 34 25 43 17 2 -3 -1 -5 -7 -5 -7 0 -12 -5 -12 -10 0 -7 7 -7 21 1 12 6
19 7 16 2 -3 -5 3 -22 14 -39 23 -35 24 -51 4 -71 -9 -8 -13 -18 -10 -22 4 -3
11 2 16 12 6 9 15 15 20 11 5 -3 9 -2 8 3 -1 4 -1 15 1 23 1 11 4 9 9 -5 6
-15 2 -25 -21 -41 l-28 -21 0 -437 c0 -278 -4 -436 -10 -436 -6 0 -10 104 -11
278 -1 220 -4 400 -9 581 0 2 -9 -4 -20 -14 -11 -10 -22 -16 -24 -14 -2 2 -23
47 -47 99 l-43 95 -4 261 -4 261 53 84 c28 46 63 101 76 122 13 20 26 37 29
37 3 0 2 -6 -3 -12z m-683 -38 c-7 -13 -15 -19 -19 -14 -3 5 -10 12 -15 16 -5
4 2 12 15 17 30 11 33 8 19 -19z m-70 -15 c-7 -8 -17 -12 -22 -9 -6 4 -5 10 3
15 22 14 33 10 19 -6z m526 -43 c1 -16 -2 -19 -11 -12 -8 6 -15 6 -23 -2 -9
-9 -12 -7 -12 9 0 37 44 42 46 5z m-111 -24 c-4 -13 -13 -30 -21 -38 -12 -12
-14 -10 -14 17 0 28 9 40 33 42 5 1 5 -9 2 -21z m-93 -42 c-15 -34 -35 -47
-59 -39 -7 3 -13 11 -13 19 0 9 -5 12 -10 9 -6 -4 -8 -10 -5 -15 3 -5 -4 -11
-15 -15 -11 -3 -20 -11 -20 -17 0 -5 -7 -8 -15 -4 -8 3 -15 1 -15 -5 0 -6 -4
-8 -9 -5 -5 4 -12 0 -14 -6 -3 -7 -6 -3 -6 10 -1 12 -6 22 -11 22 -5 0 -9 -3
-9 -7 3 -21 -3 -24 -18 -12 -15 12 -16 12 -11 -2 9 -22 -27 -39 -75 -36 -28 2
-38 -2 -43 -15 -6 -19 -24 -25 -24 -8 0 6 -8 10 -17 11 -11 0 -3 7 17 16 43
19 361 131 376 132 8 1 6 -11 -4 -33z m-686 -25 c-4 -6 -14 -7 -23 -4 -15 6
-14 7 3 13 22 9 29 6 20 -9z m-826 -47 c0 -19 -14 -17 -34 5 -13 15 -14 20 -4
24 16 5 38 -11 38 -29z m1710 -4 c-8 -5 -23 -10 -33 -10 -10 0 -20 -7 -23 -15
-4 -8 -10 -12 -15 -9 -5 3 -9 0 -9 -5 0 -6 -5 -11 -11 -11 -5 0 -7 5 -4 10 8
13 4 13 -41 -6 -21 -9 -44 -23 -51 -33 -9 -11 -12 -12 -13 -3 0 15 -35 8 -60
-13 -8 -7 -21 -10 -29 -7 -9 3 -11 0 -6 -8 5 -9 2 -10 -13 -6 -12 4 -37 -1
-59 -10 -21 -10 -45 -18 -54 -19 -9 -1 -21 -5 -28 -9 -6 -4 -11 -3 -11 3 0 5
42 23 93 40 50 17 151 51 222 76 129 44 177 56 145 35z m-600 -60 c0 -18 -20
-20 -21 -3 -1 17 -2 17 -6 1 -2 -10 -9 -18 -14 -18 -14 0 -11 28 4 33 15 5 37
-2 37 -13z m639 -27 c0 -10 3 -109 7 -220 l7 -203 -26 0 c-16 0 -26 5 -25 12
2 6 -5 14 -14 16 -13 2 -16 -1 -12 -12 5 -14 -14 -16 -169 -16 -131 0 -176 3
-180 13 -4 10 -7 10 -18 0 -7 -7 -25 -13 -39 -13 -21 0 -26 5 -28 30 -2 23 2
30 15 31 11 0 13 3 5 6 -6 2 -10 9 -6 14 3 5 0 9 -5 9 -6 0 -11 4 -11 8 0 17
30 8 36 -10 3 -10 10 -16 15 -13 5 4 0 16 -11 27 -27 29 -25 39 5 34 14 -3 25
-1 25 3 0 12 -39 21 -46 10 -14 -24 -24 -4 -22 49 l1 57 218 73 c120 41 223
71 228 68 6 -4 18 5 27 19 19 30 23 31 23 8z m-795 -17 c-3 -9 -12 -12 -21 -9
-9 4 -14 2 -10 -3 3 -6 -10 -10 -31 -11 l-37 -1 45 18 c56 23 61 24 54 6z
m-149 -56 c-3 -5 -10 -10 -16 -10 -5 0 -9 5 -9 10 0 6 7 10 16 10 8 0 12 -4 9
-10z m-40 -9 c-3 -5 -19 -12 -35 -16 -17 -4 -28 -11 -24 -16 3 -5 3 -9 0 -9
-3 0 -8 5 -11 10 -4 6 9 17 27 25 39 17 51 18 43 6z m455 -1 c0 -12 -14 -19
-55 -24 -16 -2 -46 -7 -65 -10 -39 -7 -29 -1 45 25 58 21 75 23 75 9z m675
-10 c3 -5 -3 -10 -14 -10 -12 0 -21 5 -21 10 0 6 6 10 14 10 8 0 18 -4 21 -10z
m49 -16 c18 -7 22 -24 5 -24 -6 0 -17 7 -25 15 -16 16 -7 19 20 9z m-1886 -9
c-8 -8 -68 -25 -68 -19 0 6 41 23 59 23 8 1 12 -1 9 -4z m1832 -12 c0 4 11 0
25 -9 13 -8 29 -12 36 -8 9 5 10 0 5 -20 -4 -15 -2 -26 4 -26 6 0 10 -25 10
-58 0 -54 -3 -61 -33 -88 -73 -65 -67 -73 -67 87 0 97 3 139 10 129 5 -8 10
-12 10 -7z m-830 3 c0 -2 -13 -9 -30 -15 -35 -12 -41 -5 -7 9 25 10 37 12 37
6z m-954 -45 c0 -16 -3 -17 -14 -9 -12 10 -7 19 13 28 1 0 1 -9 1 -19z m862 8
c-22 -12 -111 -40 -115 -35 -5 4 98 44 117 45 11 0 11 -2 -2 -10z m260 -138
l3 -119 -80 0 -80 1 1 29 c1 15 -3 32 -7 36 -4 4 -5 -3 -2 -15 3 -13 1 -23 -5
-23 -6 0 -8 -6 -5 -14 4 -9 0 -15 -11 -14 -9 0 -86 -4 -169 -8 l-153 -7 0 44
0 44 57 17 c39 11 64 14 82 7 23 -8 24 -7 9 4 -15 12 -9 16 52 36 38 12 72 22
75 21 3 0 19 7 35 15 17 9 35 13 40 10 6 -3 10 -2 10 3 0 11 107 45 120 37 6
-3 10 -1 10 4 0 6 4 11 8 11 4 0 9 -54 10 -119z m-389 95 c-10 -11 -109 -45
-109 -38 0 4 19 15 43 24 41 15 75 22 66 14z m-799 -242 c0 -21 -6 -17 -31 17
l-22 32 26 -18 c15 -9 27 -24 27 -31z m423 -1 c-7 -2 -19 -2 -25 0 -7 3 -2 5
12 5 14 0 19 -2 13 -5z m800 -220 c-7 -2 -19 -2 -25 0 -7 3 -2 5 12 5 14 0 19
-2 13 -5z m-78 -53 c3 -5 -4 -11 -17 -11 l-23 -2 23 -4 c24 -5 24 -5 16 -27
-7 -18 -93 -22 -129 -6 -13 6 -1 7 35 3 63 -7 62 4 0 18 -29 7 -46 6 -56 -1
-7 -7 -28 -14 -46 -16 l-33 -4 30 14 30 14 -28 1 c-36 1 -70 -16 -61 -31 4 -7
3 -8 -4 -4 -8 5 -12 -2 -12 -20 0 -15 -3 -25 -6 -22 -3 4 -2 27 1 52 l7 46 95
-1 c52 0 97 2 101 5 9 10 70 7 77 -4z m-345 -10 c0 -5 -25 -10 -55 -10 -30 0
-55 5 -55 10 0 6 25 10 55 10 30 0 55 -4 55 -10z m-25 -35 c-23 -8 -85 -10
-85 -3 0 4 21 8 48 7 26 0 43 -2 37 -4z m112 -82 c-3 -10 -5 -2 -5 17 0 19 2
27 5 18 2 -10 2 -26 0 -35z m242 -7 c-9 -8 -10 -8 -5 1 8 14 -25 26 -48 17 -9
-3 -16 -1 -16 5 0 6 16 11 35 11 21 0 36 5 36 13 1 6 4 1 6 -12 3 -13 -1 -28
-8 -35z m-676 37 c-7 -2 -19 -2 -25 0 -7 3 -2 5 12 5 14 0 19 -2 13 -5z m354
-25 c-3 -7 -5 -2 -5 12 0 14 2 19 5 13 2 -7 2 -19 0 -25z m-350 -45 c-3 -10
-5 -4 -5 12 0 17 2 24 5 18 2 -7 2 -21 0 -30z m294 -34 l44 -7 -52 1 c-50 1
-53 2 -52 26 0 23 1 24 8 6 6 -14 21 -22 52 -26z m69 15 c0 -23 -1 -24 -16
-10 -8 9 -23 16 -32 17 -14 0 -13 2 3 9 34 15 45 11 45 -16z m120 6 c0 -5 -9
-6 -19 -3 -13 3 -21 -1 -24 -14 -4 -15 -5 -15 -6 4 -1 22 15 33 37 25 6 -2 12
-8 12 -12z m58 3 c-10 -2 -26 -2 -35 0 -10 3 -2 5 17 5 19 0 27 -2 18 -5z
m460 -20 c-26 -2 -71 -2 -100 0 -29 2 -8 3 47 3 55 0 79 -1 53 -3z m115 0
c-13 -2 -33 -2 -45 0 -13 2 -3 4 22 4 25 0 35 -2 23 -4z m-1033 -28 c0 -8 6
-12 14 -9 8 3 16 -4 20 -18 8 -32 8 -38 -4 -38 -5 0 -10 10 -10 23 0 16 -3 18
-9 9 -6 -11 -9 -10 -13 5 -3 10 -9 27 -14 37 -5 14 -4 17 4 12 7 -4 12 -14 12
-21z m-110 -1 c0 -8 -5 -12 -10 -9 -6 4 -8 11 -5 16 9 14 15 11 15 -7z m71 -7
c-10 -9 -11 -8 -5 6 3 10 9 15 12 12 3 -3 0 -11 -7 -18z m-166 -6 c3 -8 -2
-22 -11 -30 -15 -15 -15 -14 -5 5 9 18 8 21 -6 20 -9 0 -18 4 -20 11 -6 17 35
12 42 -6z m1012 -3 c-3 -8 -6 -5 -6 6 -1 11 2 17 5 13 3 -3 4 -12 1 -19z m30
0 c-3 -8 -6 -5 -6 6 -1 11 2 17 5 13 3 -3 4 -12 1 -19z m30 0 c-3 -8 -6 -5 -6
6 -1 11 2 17 5 13 3 -3 4 -12 1 -19z m50 0 c-3 -8 -6 -5 -6 6 -1 11 2 17 5 13
3 -3 4 -12 1 -19z m30 0 c-3 -8 -6 -5 -6 6 -1 11 2 17 5 13 3 -3 4 -12 1 -19z
m-957 -19 c0 -6 -4 -7 -10 -4 -5 3 -10 11 -10 16 0 6 5 7 10 4 6 -3 10 -11 10
-16z m1327 -11 c-3 -7 -5 -2 -5 12 0 14 2 19 5 13 2 -7 2 -19 0 -25z m-277
-218 l0 -220 -26 0 c-23 0 -25 3 -19 29 6 28 5 29 -28 28 -33 -1 -34 -2 -24
-25 11 -23 11 -23 19 -3 10 27 13 26 16 -3 2 -24 -22 -43 -33 -25 -7 11 -26
-6 -44 -39 -8 -15 -21 -22 -41 -22 l-30 0 0 65 0 65 43 0 c37 0 46 4 55 25 13
29 39 32 58 8 13 -17 13 -17 14 2 0 35 -12 65 -25 65 -7 0 -15 -5 -17 -10 -2
-6 -15 -13 -29 -15 -22 -4 -25 -1 -27 28 -2 30 1 34 40 47 l43 15 3 103 c3
101 3 102 27 102 l25 0 0 -220z m-253 188 c-3 -8 -6 -5 -6 6 -1 11 2 17 5 13
3 -3 4 -12 1 -19z m20 0 c-3 -8 -6 -5 -6 6 -1 11 2 17 5 13 3 -3 4 -12 1 -19z
m-1133 6 c9 -3 16 -13 16 -20 0 -12 -4 -12 -20 -4 -11 6 -20 15 -20 20 0 12 3
12 24 4z m92 -56 c19 0 36 -4 39 -9 3 -4 12 -6 19 -3 10 4 12 -2 9 -21 -7 -33
-23 -43 -24 -13 0 18 -4 15 -18 -17 -29 -66 -33 -92 -15 -109 13 -14 46 -21
79 -17 13 1 7 -169 -6 -185 -11 -13 -52 -6 -43 7 8 13 -14 49 -55 91 -36 37
-61 48 -61 27 0 -6 -7 -8 -15 -5 -10 4 -19 -2 -24 -16 -5 -14 -10 24 -15 111
-5 94 -4 136 4 146 11 13 66 24 83 17 5 -2 24 -4 43 -4z m232 -29 c-3 -20 -5
-19 -9 9 -3 20 -2 29 4 23 5 -5 7 -19 5 -32z m-108 -27 c0 -18 -4 -31 -9 -27
-13 7 -24 62 -15 76 10 17 24 -10 24 -49z m160 -7 c0 -14 -4 -25 -10 -25 -5 0
-10 11 -10 25 0 14 5 25 10 25 6 0 10 -11 10 -25z m737 -7 c-3 -8 -6 -5 -6 6
-1 11 2 17 5 13 3 -3 4 -12 1 -19z m-670 -130 c-2 -18 -4 -4 -4 32 0 36 2 50
4 33 2 -18 2 -48 0 -65z m-131 15 c-3 -8 -6 -23 -6 -34 0 -10 -4 -19 -10 -19
-5 0 -6 7 -3 17 5 12 3 14 -7 8 -10 -6 -12 -4 -7 9 4 10 7 24 7 32 0 8 6 11
16 7 8 -3 13 -12 10 -20z m479 -3 c-10 -16 -65 -42 -65 -31 0 6 12 17 28 25
32 18 46 20 37 6z m-463 -75 c3 -14 2 -27 -1 -30 -4 -2 -8 10 -9 26 -3 36 4
38 10 4z m115 -22 c-3 -10 -5 -2 -5 17 0 19 2 27 5 18 2 -10 2 -26 0 -35z
m-595 -15 c-8 -8 -9 -4 -5 13 4 13 8 18 11 10 2 -7 -1 -18 -6 -23z m595 -135
c-2 -16 -4 -3 -4 27 0 30 2 43 4 28 2 -16 2 -40 0 -55z m-567 49 c0 -14 -8
-19 -31 -20 -30 -1 -30 0 -13 19 22 24 44 25 44 1z m95 -32 c-3 -5 -12 -10
-18 -10 -7 0 -6 4 3 10 19 12 23 12 15 0z m-105 -65 c0 -3 -16 -12 -36 -20
-25 -10 -66 -14 -133 -13 l-96 2 100 6 c55 3 111 11 125 17 28 13 40 15 40 8z
m865 -734 l40 -9 -35 0 c-19 0 -46 4 -60 8 -20 6 -21 8 -5 8 11 1 38 -3 60 -7z
m-372 -18 c20 -3 37 -10 37 -14 0 -10 -79 0 -95 11 -5 4 -17 10 -25 13 -8 2
-1 2 15 0 17 -3 47 -7 68 -10z m-453 -103 c0 -5 -4 -10 -10 -10 -5 0 -10 5
-10 10 0 6 5 10 10 10 6 0 10 -4 10 -10z"/>
<path d="M1840 2725 c-7 -9 -11 -17 -9 -20 3 -2 10 5 17 15 14 24 10 26 -8 5z"/>
<path d="M1736 2685 c-9 -26 -7 -32 5 -12 6 10 9 21 6 23 -2 3 -7 -2 -11 -11z"/>
<path d="M1637 2666 c-4 -9 -11 -15 -16 -11 -5 3 -12 1 -16 -5 -4 -6 -11 -8
-16 -4 -6 3 -17 3 -27 -1 -13 -5 -14 -8 -3 -15 8 -4 24 -4 36 0 14 5 27 4 34
-3 18 -18 13 -29 -11 -23 -13 3 -18 3 -11 0 7 -3 9 -12 6 -20 -4 -12 -1 -12
23 1 15 7 30 12 34 10 3 -2 6 5 6 15 0 11 -5 16 -14 12 -17 -6 -35 20 -20 29
6 4 8 13 6 20 -3 9 -6 8 -11 -5z"/>
<path d="M1495 2614 c6 -2 10 -20 9 -38 -1 -25 2 -33 11 -30 15 6 27 -10 29
-39 1 -11 11 -26 24 -35 20 -13 22 -13 16 2 -3 9 -10 14 -14 11 -5 -3 -11 -1
-15 5 -10 16 31 12 45 -5 7 -8 18 -15 24 -15 6 0 2 6 -9 12 -19 11 -18 12 10
19 19 6 34 4 44 -4 12 -9 13 -9 7 1 -5 8 0 12 14 12 13 0 19 -4 14 -11 -4 -7
-1 -10 7 -7 8 3 24 2 36 -3 15 -5 23 -4 27 7 4 9 -1 14 -14 14 -11 0 -20 4
-20 9 0 5 -3 17 -7 27 -4 12 -3 15 5 10 7 -4 12 -2 12 4 0 8 -7 9 -17 5 -10
-4 -25 -8 -33 -9 -9 -1 -27 -10 -40 -19 -14 -10 -26 -13 -28 -7 -2 5 -8 10
-13 10 -6 0 -8 -4 -5 -9 3 -5 -1 -11 -9 -15 -8 -3 -17 -1 -20 5 -4 5 -11 7
-16 4 -5 -4 -9 -3 -9 2 0 13 14 30 29 35 12 3 12 6 -2 11 -9 3 -17 2 -17 -3 0
-6 -12 -10 -26 -10 -23 0 -25 2 -13 16 11 14 10 18 -6 30 -10 8 -24 14 -29 13
-7 0 -7 -2 -1 -5z"/>
<path d="M1830 2582 c0 -6 -8 -9 -17 -6 -10 2 -8 -1 5 -7 12 -7 22 -16 22 -21
0 -4 5 -8 11 -8 8 0 7 6 -2 17 -8 9 -12 18 -11 20 2 3 1 7 -2 11 -3 3 -6 0 -6
-6z"/>
<path d="M1901 2481 c-18 -14 -21 -20 -11 -26 9 -6 11 -4 5 5 -6 10 -4 12 11
6 10 -4 15 -4 11 0 -4 4 -2 13 4 21 16 18 9 16 -20 -6z"/>
<path d="M1497 2413 c-7 -7 3 -33 13 -33 14 0 19 28 5 33 -7 3 -15 3 -18 0z"/>
<path d="M1860 2399 c0 -5 5 -7 10 -4 6 3 10 8 10 11 0 2 -4 4 -10 4 -5 0 -10
-5 -10 -11z"/>
<path d="M2110 2610 c0 -6 7 -10 15 -10 8 0 15 2 15 4 0 2 -7 6 -15 10 -8 3
-15 1 -15 -4z"/>
<path d="M2150 2530 c0 -5 5 -10 10 -10 6 0 10 5 10 10 0 6 -4 10 -10 10 -5 0
-10 -4 -10 -10z"/>
<path d="M2124 2501 c4 -5 1 -12 -4 -14 -6 -3 -5 -4 2 -3 15 3 23 26 8 26 -6
0 -9 -4 -6 -9z"/>
<path d="M1346 2512 c-2 -4 -1 -14 5 -22 7 -12 9 -10 9 8 0 23 -5 28 -14 14z"/>
<path d="M1160 2481 c0 -25 6 -27 13 -6 4 8 2 17 -3 20 -6 4 -10 -3 -10 -14z"/>
<path d="M1186 2474 c-9 -23 -8 -24 14 -24 23 0 26 13 6 29 -11 9 -15 8 -20
-5z"/>
<path d="M1402 2479 c5 -13 2 -16 -15 -13 -12 2 -16 2 -9 -2 6 -3 12 -14 12
-24 0 -26 26 -45 34 -24 9 22 8 26 -5 18 -8 -5 -8 -1 0 14 8 16 7 23 -6 33
-14 12 -16 12 -11 -2z"/>
<path d="M1107 2463 c-4 -3 -7 -11 -7 -17 0 -6 5 -5 12 2 6 6 9 14 7 17 -3 3
-9 2 -12 -2z"/>
<path d="M1342 2429 c-29 -11 -24 -33 7 -37 32 -5 50 14 31 32 -11 10 -22 11
-38 5z"/>
<path d="M1150 2415 c0 -8 4 -15 9 -15 5 0 11 7 15 15 3 9 0 15 -9 15 -8 0
-15 -7 -15 -15z"/>
<path d="M0 2229 l0 -110 40 -52 39 -53 1 -266 c0 -289 2 -278 -56 -278 -23 0
-24 -2 -23 -75 l1 -75 27 7 c14 4 75 18 134 32 l109 26 -3 300 c-2 165 -4 346
-4 403 0 56 -3 102 -8 102 -4 0 -26 12 -50 27 -23 14 -79 48 -124 74 l-83 47
0 -109z m229 -668 c7 -5 9 -11 5 -14 -5 -3 -15 1 -22 9 -14 16 -5 18 17 5z"/>
<path d="M700 2246 c0 -2 7 -7 16 -10 8 -3 12 -2 9 4 -6 10 -25 14 -25 6z"/>
<path d="M658 2193 c6 -2 18 -2 25 0 6 3 1 5 -13 5 -14 0 -19 -2 -12 -5z"/>
<path d="M400 2170 c0 -12 7 -20 18 -20 13 0 14 2 3 9 -7 5 -10 14 -7 20 4 6
2 11 -3 11 -6 0 -11 -9 -11 -20z"/>
<path d="M330 2164 c0 -8 5 -12 10 -9 6 3 10 10 10 16 0 5 -4 9 -10 9 -5 0
-10 -7 -10 -16z"/>
<path d="M1153 2133 c9 -2 25 -2 35 0 9 3 1 5 -18 5 -19 0 -27 -2 -17 -5z"/>
<path d="M409 2108 c9 -25 31 -36 31 -16 0 7 -9 19 -20 25 -17 12 -18 11 -11
-9z"/>
<path d="M1098 2123 c7 -3 16 -2 19 1 4 3 -2 6 -13 5 -11 0 -14 -3 -6 -6z"/>
<path d="M690 2110 c8 -5 24 -9 35 -9 l20 0 -20 9 c-11 5 -27 9 -35 9 -13 1
-13 0 0 -9z"/>
<path d="M764 2092 c3 -6 14 -10 24 -10 9 0 37 -4 62 -10 40 -10 43 -9 26 4
-11 8 -27 14 -37 14 -9 0 -31 3 -49 7 -23 4 -31 3 -26 -5z"/>
<path d="M557 2069 c7 -7 15 -10 18 -7 3 3 -2 9 -12 12 -14 6 -15 5 -6 -5z"/>
<path d="M450 2030 c0 -5 5 -10 11 -10 5 0 7 5 4 10 -3 6 -8 10 -11 10 -2 0
-4 -4 -4 -10z"/>
<path d="M490 1965 c0 -8 2 -15 4 -15 2 0 6 7 10 15 3 8 1 15 -4 15 -6 0 -10
-7 -10 -15z"/>
<path d="M1628 1963 c12 -2 30 -2 40 0 9 3 -1 5 -23 4 -22 0 -30 -2 -17 -4z"/>
<path d="M528 1913 c7 -3 16 -2 19 1 4 3 -2 6 -13 5 -11 0 -14 -3 -6 -6z"/>
<path d="M607 1863 c-4 -3 -7 -11 -7 -17 0 -6 5 -5 12 2 6 6 9 14 7 17 -3 3
-9 2 -12 -2z"/>
<path d="M40 1810 c0 -5 5 -10 10 -10 6 0 10 5 10 10 0 6 -4 10 -10 10 -5 0
-10 -4 -10 -10z"/>
<path d="M2331 1714 c0 -11 3 -14 6 -6 3 7 2 16 -1 19 -3 4 -6 -2 -5 -13z"/>
<path d="M2325 1515 c0 -14 3 -25 8 -25 4 0 7 11 7 25 0 14 -3 25 -7 25 -5 0
-8 -11 -8 -25z"/>
<path d="M50 1490 c-9 -6 -10 -10 -3 -10 6 0 15 5 18 10 8 12 4 12 -15 0z"/>
<path d="M2165 1261 c8 -14 -31 -23 -64 -16 -16 3 -46 3 -66 -1 -61 -11 -21
-22 98 -27 l108 -5 -33 29 c-32 28 -55 38 -43 20z"/>
<path d="M1622 1233 c-78 -5 -81 -27 -4 -31 35 -2 52 -7 52 -16 0 -10 18 -14
65 -15 51 -1 66 3 75 17 8 11 13 13 16 5 3 -7 12 -9 20 -6 8 3 14 0 14 -7 0
-7 7 -10 15 -6 8 3 23 -3 32 -12 10 -10 31 -19 48 -20 23 -2 26 1 17 10 -7 7
-12 18 -12 26 0 12 3 12 17 1 11 -10 14 -10 9 -1 -4 7 -1 12 8 12 9 0 16 -7
16 -15 0 -18 17 -20 23 -2 2 6 8 8 13 4 5 -4 2 -12 -5 -16 -9 -6 -10 -11 -2
-15 6 -4 15 -5 19 -2 4 2 14 1 22 -5 12 -7 9 -9 -10 -9 -14 0 -36 7 -48 16
-13 9 -26 13 -30 9 -3 -3 0 -11 8 -16 13 -9 12 -10 -2 -6 -23 8 -40 -15 -23
-30 8 -7 16 -9 19 -4 7 11 66 20 83 14 7 -3 10 -10 7 -15 -4 -6 2 -8 12 -6 12
2 18 11 16 22 -2 10 5 24 15 32 16 12 15 13 -19 14 -20 0 -39 4 -42 9 -3 4 7
6 22 4 20 -3 14 3 -22 21 -45 22 -60 25 -145 22 -53 -2 -112 -6 -131 -10 -23
-4 -28 -3 -15 2 19 9 19 9 -2 20 -12 7 -37 11 -55 10 -18 -1 -61 -3 -96 -5z"/>
<path d="M940 1201 c0 -18 -6 -19 -80 -14 -57 4 -80 3 -80 -6 0 -7 27 -11 80
-11 64 0 80 -3 80 -15 0 -8 8 -15 18 -15 11 0 24 -10 30 -22 8 -18 11 -19 11
-6 1 9 11 24 22 32 19 13 24 13 44 0 21 -13 23 -13 28 6 4 15 0 20 -16 21 -17
1 -15 3 8 9 17 4 22 8 13 9 -10 0 -18 8 -18 16 0 21 -14 19 -36 -6 l-18 -20
-8 20 c-10 29 -78 31 -78 2z"/>
<path d="M1421 1179 c11 -21 39 -26 39 -7 0 21 13 -1 14 -24 1 -20 6 -23 43
-23 23 0 45 -3 49 -7 4 -5 -10 -8 -32 -8 -29 0 -35 -3 -24 -10 12 -8 9 -10
-13 -10 -16 0 -26 4 -22 10 3 6 -1 10 -9 10 -10 0 -13 -6 -9 -16 5 -12 15 -15
44 -11 22 3 39 2 39 -2 0 -8 97 -8 105 1 3 3 -1 12 -9 21 -8 8 -13 17 -10 19
2 3 -3 11 -13 19 -9 8 -14 9 -10 3 4 -7 -1 -18 -10 -25 -14 -12 -15 -11 -9 8
8 24 -10 34 -64 35 -17 1 -28 3 -25 6 3 3 27 5 53 4 46 -2 46 -2 22 13 -16 9
-50 14 -92 14 -63 -1 -67 -2 -57 -20z m116 -35 c-3 -3 -12 -4 -19 -1 -8 3 -5
6 6 6 11 1 17 -2 13 -5z"/>
<path d="M2316 1186 c3 -9 -5 -18 -23 -24 -26 -9 -24 -10 20 -10 53 1 58 8 22
32 -19 12 -23 13 -19 2z"/>
<path d="M1110 1155 c-10 -12 -10 -15 4 -15 9 0 16 7 16 15 0 8 -2 15 -4 15
-2 0 -9 -7 -16 -15z"/>
<path d="M1150 1160 c0 -13 11 -13 30 0 12 8 11 10 -7 10 -13 0 -23 -4 -23
-10z"/>
<path d="M1880 1160 c0 -5 5 -10 11 -10 5 0 7 5 4 10 -3 6 -8 10 -11 10 -2 0
-4 -4 -4 -10z"/>
<path d="M1220 1151 c0 -5 -8 -12 -17 -14 -10 -3 -3 -5 15 -6 46 -2 40 -18 -8
-18 -22 0 -37 4 -33 10 8 13 -40 -13 -52 -29 -5 -7 -19 -14 -30 -17 -11 -3 -4
-5 17 -6 20 0 38 4 40 10 2 7 18 13 36 14 37 2 37 2 18 -18 -8 -8 -16 -29 -18
-48 l-3 -34 118 -3 117 -3 0 26 c0 14 -10 35 -21 46 l-22 22 28 -7 c23 -6 26
-4 21 9 -7 18 17 59 27 48 4 -3 7 -1 7 5 0 15 -12 15 -44 1 -16 -8 -22 -17
-19 -27 4 -9 2 -13 -4 -9 -6 4 -14 1 -17 -5 -3 -10 -9 -8 -19 5 -8 9 -24 17
-35 17 -23 0 -42 -22 -24 -28 26 -8 10 -21 -28 -20 -22 0 -40 4 -40 9 0 5 7 9
15 9 8 0 15 9 15 21 0 11 4 17 10 14 5 -3 18 -1 27 4 17 10 17 10 0 11 -10 0
-15 5 -12 10 4 6 -8 10 -29 10 -20 0 -36 -4 -36 -9z"/>
<path d="M1320 1149 c0 -5 9 -9 20 -9 11 0 20 2 20 4 0 2 -9 6 -20 9 -11 3
-20 1 -20 -4z"/>
<path d="M2132 1116 c7 -7 17 -13 23 -13 5 -1 26 -4 45 -8 33 -7 34 -6 19 10
-9 9 -35 18 -58 21 -34 3 -39 1 -29 -10z"/>
<path d="M814 1109 c-3 -5 7 -9 22 -9 15 0 24 3 20 7 -11 11 -35 12 -42 2z"/>
<path d="M890 1085 c0 -8 8 -15 18 -15 9 0 28 -3 42 -6 16 -4 11 1 -15 15 -47
25 -45 25 -45 6z"/>
<path d="M1936 1064 c-6 -16 10 -19 19 -4 4 6 11 7 17 4 6 -4 0 -13 -16 -21
-29 -15 -35 -33 -10 -33 8 0 12 -5 9 -10 -8 -13 20 -24 36 -15 8 6 7 10 -2 16
-12 8 -11 11 1 19 8 6 23 8 33 6 29 -7 19 12 -15 31 -41 22 -65 24 -72 7z"/>
<path d="M1760 1063 c0 -3 8 -12 18 -20 16 -14 16 -14 -1 -9 -10 3 -26 6 -35
6 -15 0 -15 2 -2 10 12 8 11 10 -7 10 -31 0 -20 -22 23 -45 22 -12 30 -21 23
-26 -7 -4 4 -7 25 -7 20 0 39 4 42 9 3 5 0 9 -5 9 -6 0 -11 4 -11 9 0 13 46
20 62 9 10 -7 9 -12 -6 -23 -19 -14 -18 -15 18 -15 l37 0 -18 30 c-13 23 -24
30 -49 30 -17 0 -50 7 -73 15 -22 8 -41 11 -41 8z"/>
<path d="M651 1044 c-47 -21 -33 -27 23 -10 38 12 45 12 36 1 -8 -9 -8 -15 0
-20 5 -3 10 -1 10 5 0 6 5 8 12 4 8 -5 4 -14 -13 -27 -16 -13 -18 -18 -6 -14
9 4 17 3 17 -1 0 -5 16 -6 35 -4 33 4 50 19 79 70 11 18 -149 15 -193 -4z"/>
<path d="M892 1049 c2 -7 10 -15 17 -17 8 -3 12 1 9 9 -2 7 -10 15 -17 17 -8
3 -12 -1 -9 -9z"/>
<path d="M1012 1052 c-31 -3 -32 -5 -15 -17 13 -10 21 -10 31 -2 10 8 15 8 20
0 5 -8 13 -7 27 4 20 15 20 15 -2 10 -12 -3 -23 -2 -25 2 -2 3 -18 5 -36 3z"/>
<path d="M660 760 c0 -5 5 -10 11 -10 5 0 7 5 4 10 -3 6 -8 10 -11 10 -2 0 -4
-4 -4 -10z"/>
<path d="M690 720 c0 -5 5 -10 11 -10 5 0 7 5 4 10 -3 6 -8 10 -11 10 -2 0 -4
-4 -4 -10z"/>
</g>
</svg>
