<?xml version="1.0" standalone="no"?>
<!DOCTYPE svg PUBLIC "-//W3C//DTD SVG 20010904//EN"
 "http://www.w3.org/TR/2001/REC-SVG-20010904/DTD/svg10.dtd">
<svg version="1.0" xmlns="http://www.w3.org/2000/svg"
 width="300.000000pt" height="225.000000pt" viewBox="0 0 300.000000 225.000000"
 preserveAspectRatio="xMidYMid meet">

<g transform="translate(0.000000,225.000000) scale(0.100000,-0.100000)"
fill="#000000" stroke="none">
<path d="M112 2230 c0 -14 2 -19 5 -12 2 6 2 18 0 25 -3 6 -5 1 -5 -13z"/>
<path d="M130 2191 c0 -44 -3 -59 -12 -56 -8 3 -13 -4 -13 -19 0 -13 3 -22 8
-19 4 2 7 -9 7 -26 0 -16 -4 -32 -8 -35 -8 -5 -8 -373 -1 -426 4 -24 10 -26
169 -53 91 -16 167 -30 169 -32 2 -2 4 -19 5 -37 1 -29 5 -33 31 -36 148 -17
329 -52 346 -68 18 -16 19 -16 19 3 0 11 7 26 15 33 8 7 15 21 15 31 0 27 72
73 100 64 20 -6 22 -12 17 -59 -4 -51 -24 -113 -32 -104 -2 2 -5 32 -6 66 -1
34 -6 62 -12 62 -5 0 -3 8 4 18 11 14 11 15 -1 4 -9 -7 -13 -26 -11 -48 1 -21
-3 -42 -12 -52 -8 -9 -20 -34 -27 -55 -6 -21 -23 -50 -36 -64 -18 -20 -24 -38
-25 -77 -1 -41 -3 -46 -9 -26 -5 16 -9 -16 -10 -90 -1 -63 -5 -124 -10 -135
-6 -13 -9 30 -9 120 0 77 0 150 -1 162 0 18 -7 22 -52 28 -82 10 -158 11 -158
3 0 -4 8 -9 18 -10 9 -1 24 -2 32 -4 8 -1 30 -2 49 -3 l34 -1 -7 -202 c-9
-237 -7 -431 3 -438 4 -3 7 -18 6 -35 0 -23 8 -34 35 -52 72 -46 73 -48 67
-75 -4 -16 -17 -29 -30 -33 -66 -20 -212 -78 -215 -86 -6 -14 -29 -10 -36 6
-9 24 -33 6 -33 -25 0 -16 4 -27 9 -24 4 3 5 -3 1 -12 -5 -13 -3 -15 8 -9 11
7 11 5 -1 -10 -8 -10 -10 -16 -4 -12 16 10 25 -4 79 -125 42 -96 49 -106 66
-97 15 7 19 6 19 -6 0 -8 4 -15 9 -15 5 0 7 9 4 20 -3 12 1 22 11 26 9 3 16
11 16 16 0 11 -58 101 -112 174 -21 28 -38 55 -38 60 0 4 7 -2 16 -14 11 -17
21 -21 40 -16 18 5 24 3 22 -7 -2 -8 4 -13 12 -12 9 2 28 -21 47 -57 18 -33
27 -59 20 -57 -7 1 -16 7 -20 12 -5 6 -5 -1 -1 -15 9 -31 31 -54 39 -40 3 5 3
16 -1 23 -5 8 -2 8 9 -2 12 -9 17 -28 17 -62 l0 -48 312 -1 312 0 -69 71 c-39
39 -93 93 -121 120 -28 27 -51 54 -51 61 0 7 -9 33 -21 58 -11 25 -22 52 -25
60 -3 8 -5 -4 -3 -27 1 -23 5 -45 9 -49 4 -4 7 -12 7 -18 -1 -6 -9 -1 -20 12
-19 23 -19 23 -30 2 -9 -16 -15 -18 -30 -10 -26 14 -25 25 6 110 17 45 30 67
35 59 4 -7 5 -19 1 -27 -3 -10 -1 -13 6 -8 7 4 10 17 7 29 -5 18 0 24 32 34
48 15 31 26 327 -212 54 -44 110 -89 125 -100 14 -11 50 -42 79 -70 30 -27 61
-54 70 -59 9 -5 21 -15 25 -23 4 -7 22 -13 39 -13 30 0 31 1 14 19 -10 11 -24
17 -32 14 -8 -3 -14 0 -14 6 0 6 -7 11 -15 11 -8 0 -14 5 -13 11 2 7 -24 30
-57 53 -33 23 -100 82 -150 131 -88 88 -146 138 -189 162 -21 12 -20 13 6 13
37 0 45 18 11 26 -49 10 -49 12 -3 13 25 0 52 -3 60 -9 9 -5 17 -5 20 1 4 5
19 -2 35 -17 23 -21 25 -28 14 -35 -10 -6 -6 -9 15 -9 37 0 121 -41 104 -51
-8 -5 -2 -10 16 -15 21 -5 33 -2 47 13 19 18 19 19 -5 21 -34 2 -76 20 -76 31
0 6 11 6 30 -1 25 -8 34 -7 48 6 13 11 29 14 55 9 40 -6 48 -19 20 -30 -20 -8
-63 -48 -63 -60 0 -4 5 -2 12 5 16 16 39 15 32 -2 -9 -23 64 -31 87 -10 23 21
9 45 -15 25 -9 -7 -17 -8 -20 -2 -3 5 0 12 6 14 10 4 9 8 -2 17 -12 9 -12 13
-2 17 17 7 3 16 -123 83 -55 29 -126 70 -159 91 -32 22 -62 39 -67 39 -5 0 -9
5 -9 10 0 6 1 10 3 10 27 0 281 100 308 121 30 23 48 29 122 35 48 4 84 11 81
15 -3 5 0 9 5 9 6 0 11 -7 11 -15 0 -8 8 -15 18 -15 25 0 34 -10 22 -24 -6 -8
6 -12 43 -13 152 -3 149 -2 154 -22 5 -18 21 -25 123 -51 25 -6 62 -23 83 -36
20 -13 37 -19 37 -13 0 8 4 8 15 -1 11 -9 12 -17 4 -32 -17 -31 -19 -117 -3
-111 8 3 15 -7 19 -29 3 -18 9 -53 13 -78 14 -81 5 -190 -22 -269 -15 -41 -26
-76 -26 -78 0 -2 103 -3 229 -3 l229 0 6 26 c4 15 28 169 54 343 l47 316 3
783 3 782 -544 0 -543 0 -45 -47 c-72 -76 -72 -76 -48 -109 l21 -29 -26 28
-26 29 -31 -33 c-20 -21 -28 -38 -23 -48 14 -33 34 -116 34 -144 0 -27 1 -28
48 -22 112 12 182 13 182 2 1 -7 17 -20 36 -29 43 -20 81 -8 90 28 4 17 15 25
38 28 92 14 442 40 399 30 -31 -7 -45 -29 -48 -72 -3 -49 7 -75 31 -78 10 -2
40 -6 67 -10 l47 -7 0 -57 c0 -45 4 -61 21 -76 17 -16 22 -16 30 -4 8 12 9 9
6 -10 -15 -74 -19 -161 -7 -175 12 -14 10 -60 -5 -146 -4 -22 -2 -46 5 -59 10
-18 9 -24 -1 -31 -11 -6 -11 -11 -1 -21 18 -18 15 -69 -5 -84 -17 -13 -17 -15
1 -29 15 -11 18 -23 13 -56 -3 -23 -11 -45 -17 -49 -6 -4 -14 -25 -17 -48 -7
-51 -22 -57 -74 -30 -36 18 -43 19 -67 7 -33 -17 -52 -34 -52 -48 0 -25 -44
-34 -133 -27 -171 13 -504 60 -544 76 -15 6 -23 18 -23 35 0 29 -27 35 -37 8
-3 -10 -14 -27 -25 -39 -17 -19 -17 -23 -3 -50 21 -40 1 -55 -56 -43 -22 5
-45 6 -51 3 -7 -4 -8 4 -3 25 7 32 3 36 -42 45 -4 0 -10 -12 -13 -29 -4 -24
-12 -31 -43 -38 -25 -6 -37 -15 -37 -26 0 -10 -10 -27 -22 -38 -31 -27 -135
-80 -175 -88 -18 -4 -33 -11 -33 -16 0 -5 -11 -9 -25 -9 -14 0 -25 -3 -26 -7
-3 -34 -4 -63 -1 -63 2 0 12 5 23 10 10 6 19 7 19 2 0 -9 -110 -56 -116 -50
-1 2 -6 66 -10 143 -4 85 -10 132 -15 120 -4 -11 -8 56 -8 150 1 103 5 175 11
182 7 9 7 13 0 13 -7 0 -11 76 -12 230 0 190 2 233 14 245 17 18 30 20 20 3
-5 -8 0 -9 16 -5 13 3 29 2 34 -2 14 -11 184 -61 208 -61 16 0 17 3 8 21 -15
26 -7 34 19 20 17 -9 19 -16 11 -36 -9 -23 -6 -25 42 -40 28 -8 62 -15 74 -15
13 0 26 -4 29 -10 12 -19 33 -10 33 15 0 19 -8 27 -34 35 -51 17 -109 76 -109
111 0 16 6 31 14 34 9 4 10 9 3 18 -16 19 72 113 103 109 17 -2 24 3 29 22 6
25 21 31 74 29 26 -1 11 32 -53 110 -36 45 -56 51 -245 72 -80 9 -146 17 -147
18 -8 9 -5 42 3 40 6 -1 70 -7 142 -13 187 -16 188 -16 316 127 l29 32 -491 1
c-484 0 -491 0 -497 -20 -8 -25 -29 -27 -22 -1 4 18 -6 19 -289 20 l-294 2 0
-60z m550 25 c0 -2 -7 -6 -15 -10 -8 -3 -15 -1 -15 4 0 6 7 10 15 10 8 0 15
-2 15 -4z m1177 -138 c-3 -8 -6 -5 -6 6 -1 11 2 17 5 13 3 -3 4 -12 1 -19z
m-987 -40 c0 -16 -3 -19 -11 -11 -6 6 -8 16 -5 22 11 17 16 13 16 -11z m-70
-59 c-4 -22 -11 -43 -15 -47 -4 -4 -5 4 -2 18 4 14 7 41 7 60 0 23 3 30 9 22
4 -7 5 -31 1 -53z m34 44 c-4 -15 2 -18 40 -17 l45 1 -14 -27 c-8 -16 -25 -30
-40 -32 -21 -5 -25 -2 -25 19 0 18 -4 24 -15 19 -17 -6 -19 7 -5 35 13 24 20
25 14 2z m1819 -80 c-7 -2 -19 -2 -25 0 -7 3 -2 5 12 5 14 0 19 -2 13 -5z m60
0 c-7 -2 -19 -2 -25 0 -7 3 -2 5 12 5 14 0 19 -2 13 -5z m-1569 -262 c3 -4 -3
-16 -14 -26 -19 -18 -20 -17 -20 8 0 26 22 38 34 18z m96 -32 c10 -6 4 -7 -15
-3 -16 4 -37 11 -45 15 -10 6 -4 7 15 3 17 -4 37 -11 45 -15z m130 -50 c0 -5
-12 -3 -27 3 -44 19 -50 28 -10 16 21 -6 37 -15 37 -19z m-743 -145 c-3 -3
-12 -4 -19 -1 -8 3 -5 6 6 6 11 1 17 -2 13 -5z m363 -134 c15 -8 17 -18 13
-52 -6 -54 -22 -106 -34 -113 -5 -4 -9 31 -9 84 0 50 3 91 6 91 3 0 14 -4 24
-10z m-6 -186 c13 -5 14 -27 9 -162 -6 -162 -21 -250 -23 -137 0 33 -3 115 -6
183 -4 67 -4 122 -1 122 3 0 12 -3 21 -6z m396 -604 c0 -5 -5 -10 -11 -10 -5
0 -7 5 -4 10 3 6 8 10 11 10 2 0 4 -4 4 -10z m155 -27 c16 -13 17 -15 3 -10
-10 4 -18 2 -18 -3 0 -6 -8 -5 -19 2 -20 12 -19 28 2 28 7 0 21 -8 32 -17z
m-252 -19 c9 -4 17 -10 17 -15 0 -16 -20 -10 -43 12 -12 12 -15 19 -7 15 8 -3
23 -9 33 -12z m281 -76 c-6 -9 -54 20 -54 33 0 4 13 1 29 -9 16 -9 27 -20 25
-24z m-799 -67 c3 -5 -9 -20 -27 -32 -17 -13 -28 -18 -24 -11 5 8 -1 12 -18
12 -14 0 -29 -7 -34 -16 -5 -9 -15 -14 -21 -10 -7 5 3 17 29 35 41 27 85 38
95 22z"/>
<path d="M1603 2100 c-13 -5 -23 -15 -23 -21 0 -8 4 -8 14 0 8 7 27 16 43 21
19 6 22 8 8 9 -11 0 -30 -4 -42 -9z"/>
<path d="M1695 2090 c10 -11 22 -20 26 -20 5 0 1 9 -8 20 -10 11 -22 20 -27
20 -5 0 -1 -9 9 -20z"/>
<path d="M2560 1760 c0 -5 7 -10 15 -10 8 0 15 5 15 10 0 6 -7 10 -15 10 -8 0
-15 -4 -15 -10z"/>
<path d="M474 1145 c8 -160 9 -282 2 -293 -2 -4 -7 -35 -11 -70 -6 -58 -5 -62
15 -62 19 0 21 5 19 53 -1 28 2 92 6 141 6 72 5 87 -5 81 -10 -6 -11 -4 -5 11
4 10 9 70 11 133 3 95 6 116 21 127 14 11 15 13 3 14 -8 0 -26 3 -39 7 l-24 6
7 -148z"/>
<path d="M2257 1218 c-2 -7 -4 -29 -3 -48 1 -36 18 -46 43 -27 7 5 18 5 25 1
37 -24 48 -15 48 37 0 42 -3 49 -17 47 -24 -4 -34 -19 -27 -40 6 -20 -14 -34
-29 -19 -8 8 -8 14 1 23 9 9 7 14 -6 24 -22 17 -29 17 -35 2z"/>
<path d="M2035 1211 c-25 -5 -31 -12 -33 -37 -3 -26 1 -33 20 -37 13 -4 34 -4
46 0 20 5 23 11 20 41 -4 39 -9 42 -53 33z"/>
<path d="M2122 1178 l3 -43 42 0 c46 -1 50 4 49 50 -1 29 -3 30 -49 33 l-48 3
3 -43z"/>
<path d="M1927 1198 c12 -6 24 -18 26 -27 3 -9 5 -4 6 12 1 23 -3 27 -26 26
-27 0 -27 -1 -6 -11z"/>
<path d="M1150 1156 c0 -31 3 -36 24 -36 24 0 41 24 30 42 -4 6 1 8 11 6 23
-4 32 -28 11 -28 -9 0 -16 -4 -16 -10 0 -5 14 -10 30 -10 23 0 30 4 30 20 0
11 5 20 11 20 6 0 8 -9 4 -21 -6 -18 -3 -20 22 -17 23 2 28 8 28 31 1 26 -1
27 -55 27 -30 0 -72 3 -92 6 l-38 7 0 -37z"/>
<path d="M1890 1165 c0 -9 7 -18 15 -22 23 -8 24 0 3 20 -15 14 -18 15 -18 2z"/>
<path d="M1359 1163 c0 -5 -2 -16 -4 -25 -2 -12 3 -18 16 -18 14 0 19 7 19 25
0 16 -6 25 -15 25 -8 0 -15 -3 -16 -7z"/>
<path d="M100 798 c0 -59 -18 -168 -32 -195 -6 -13 -17 -23 -24 -23 -7 0 -20
-7 -28 -16 -23 -22 -24 -497 -2 -488 8 3 12 12 9 20 -3 8 1 14 11 14 9 0 16
-4 16 -10 0 -5 14 -10 30 -10 29 0 40 -13 20 -25 -6 -3 -10 -12 -10 -18 0 -7
7 -3 16 8 12 16 16 17 23 6 7 -11 11 -10 21 5 11 18 11 18 7 -1 -3 -11 -8 -29
-11 -40 -6 -18 -6 -18 5 1 6 13 30 26 60 34 43 12 67 30 39 30 -5 0 -10 7 -10
15 0 18 -4 18 -48 6 -28 -8 -32 -7 -32 9 0 10 9 22 20 25 11 4 18 11 15 16 -4
5 5 9 19 9 19 0 26 5 26 19 0 12 9 20 28 24 15 3 38 15 51 26 15 14 32 19 46
15 13 -3 26 -1 29 5 4 6 12 11 17 11 6 0 7 -4 4 -10 -3 -5 -1 -10 4 -10 6 0
11 5 11 10 0 6 8 10 18 10 15 0 15 -2 2 -11 -12 -8 -9 -9 13 -5 24 6 27 4 27
-20 0 -43 9 -23 14 32 l4 50 -29 -4 c-16 -2 -26 -8 -23 -13 3 -5 4 -9 2 -9 -2
0 -18 -4 -35 -9 -22 -6 -32 -6 -30 1 1 6 -4 13 -12 16 -9 3 -11 0 -6 -8 5 -9
2 -10 -15 -5 -17 5 -21 4 -15 -5 5 -8 4 -11 -3 -6 -6 3 -23 1 -39 -5 -39 -15
-134 -30 -145 -22 -6 3 -4 9 3 15 9 6 -2 8 -34 5 -52 -5 -64 15 -12 21 20 3
25 6 15 12 -11 7 -11 11 -1 24 7 8 10 20 7 25 -4 6 5 18 19 27 15 10 29 33 36
58 6 22 15 46 20 53 7 7 6 14 -1 18 -6 4 -9 14 -8 23 2 12 -6 16 -29 18 -29 1
-33 -1 -33 -23 0 -13 -4 -21 -10 -18 -5 3 -10 24 -10 46 0 21 5 39 10 39 6 0
10 11 10 23 0 39 30 56 116 67 143 19 184 31 184 53 0 15 -5 18 -22 14 -63
-16 -151 -19 -196 -7 -75 19 -91 30 -98 67 -9 47 -24 41 -24 -9z m396 -535
c-3 -4 -6 -1 -6 6 0 7 -4 9 -10 6 -11 -7 -14 8 -3 19 4 3 11 -1 16 -9 5 -9 6
-19 3 -22z m-109 1 c-3 -3 -12 -4 -19 -1 -8 3 -5 6 6 6 11 1 17 -2 13 -5z
m-260 -90 c-3 -3 -12 -4 -19 -1 -8 3 -5 6 6 6 11 1 17 -2 13 -5z m-38 -53 c-3
-6 -10 -7 -18 -2 -7 5 -10 14 -6 21 9 14 29 -2 24 -19z m61 0 c0 -28 -11 -52
-21 -45 -16 9 -11 64 6 64 8 0 15 -9 15 -19z"/>
<path d="M1795 680 c-8 -14 10 -36 34 -43 18 -4 18 -3 2 24 -17 31 -26 35 -36
19z"/>
<path d="M1950 604 c0 -8 5 -12 10 -9 6 3 10 10 10 16 0 5 -4 9 -10 9 -5 0
-10 -7 -10 -16z"/>
<path d="M353 583 c-7 -2 -13 -11 -13 -18 0 -14 -22 -25 -51 -25 -10 0 -19 -5
-19 -11 0 -8 17 -10 56 -5 70 8 80 14 57 32 -17 12 -17 13 0 14 9 0 17 5 17
10 0 10 -26 12 -47 3z"/>
<path d="M468 563 c6 -2 18 -2 25 0 6 3 1 5 -13 5 -14 0 -19 -2 -12 -5z"/>
<path d="M1190 378 c0 -9 -4 -18 -10 -20 -6 -2 -7 -19 -3 -43 l7 -40 7 55 c4
30 6 57 3 59 -2 2 -4 -3 -4 -11z"/>
<path d="M1505 370 c3 -5 10 -10 16 -10 5 0 9 5 9 10 0 6 -7 10 -16 10 -8 0
-12 -4 -9 -10z"/>
<path d="M1201 304 c-1 -35 21 -70 37 -60 7 4 12 13 12 19 0 7 -4 6 -10 -3
-11 -18 -15 -14 -28 35 -9 38 -10 38 -11 9z"/>
<path d="M400 300 c0 -5 10 -10 23 -10 18 0 19 2 7 10 -19 13 -30 13 -30 0z"/>
<path d="M1882 281 c-32 -20 -40 -30 -29 -34 10 -4 13 -13 10 -26 -6 -23 15
-29 34 -10 8 8 18 6 37 -6 23 -15 26 -15 26 -2 0 17 -16 30 -38 33 -22 4 -27
14 -12 24 8 6 20 10 25 10 6 0 3 -5 -5 -10 -18 -12 -2 -12 25 0 17 7 17 9 3 9
-20 1 -25 21 -5 21 8 0 7 4 -3 10 -20 13 -18 13 -68 -19z"/>
<path d="M1718 243 c7 -3 16 -2 19 1 4 3 -2 6 -13 5 -11 0 -14 -3 -6 -6z"/>
<path d="M1250 230 c0 -5 5 -10 11 -10 5 0 7 5 4 10 -3 6 -8 10 -11 10 -2 0
-4 -4 -4 -10z"/>
<path d="M1230 205 c13 -14 25 -25 27 -25 9 0 -33 49 -41 50 -5 0 1 -11 14
-25z"/>
<path d="M295 180 c3 -5 8 -10 11 -10 2 0 4 5 4 10 0 6 -5 10 -11 10 -5 0 -7
-4 -4 -10z"/>
<path d="M1800 170 c0 -5 4 -10 9 -10 6 0 13 5 16 10 3 6 -1 10 -9 10 -9 0
-16 -4 -16 -10z"/>
<path d="M1300 166 c0 -2 7 -9 15 -16 13 -11 14 -10 9 4 -5 14 -24 23 -24 12z"/>
<path d="M1997 154 c-4 -4 -2 -13 4 -20 7 -8 7 -14 -1 -19 -5 -3 -10 -1 -10 4
0 6 -4 11 -10 11 -16 0 -12 -30 5 -36 8 -4 12 -10 9 -15 -6 -11 13 -39 27 -39
5 0 9 9 9 19 0 10 8 22 18 26 16 6 16 8 -3 21 -20 15 -20 15 -1 30 16 11 17
14 4 14 -9 0 -23 2 -30 5 -8 3 -17 3 -21 -1z"/>
<path d="M1840 142 c0 -5 12 -14 26 -20 14 -7 23 -8 19 -2 -9 15 -45 32 -45
22z"/>
<path d="M1910 141 c0 -5 7 -12 16 -15 24 -9 28 -7 14 9 -14 17 -30 20 -30 6z"/>
<path d="M1401 94 c0 -11 3 -14 6 -6 3 7 2 16 -1 19 -3 4 -6 -2 -5 -13z"/>
<path d="M1346 91 c-3 -5 2 -15 12 -22 15 -12 16 -12 5 2 -7 9 -10 19 -6 22 3
4 4 7 0 7 -3 0 -8 -4 -11 -9z"/>
<path d="M2171 80 c0 -8 4 -22 9 -30 12 -18 12 -2 0 25 -6 13 -9 15 -9 5z"/>
<path d="M26 65 c-11 -8 -17 -17 -14 -20 2 -3 13 4 23 15 21 23 18 25 -9 5z"/>
<path d="M2150 65 c0 -5 5 -17 10 -25 5 -8 10 -10 10 -5 0 6 -5 17 -10 25 -5
8 -10 11 -10 5z"/>
<path d="M109 23 c-13 -16 -12 -17 4 -4 16 13 21 21 13 21 -2 0 -10 -8 -17
-17z"/>
</g>
</svg>
